<?xml version="1.0" encoding="UTF-8"?>
<!DOCTYPE svg PUBLIC "-//W3C//DTD SVG 1.1//EN" "http://www.w3.org/Graphics/SVG/1.1/DTD/svg11.dtd">
<!-- Creator: CorelDRAW 2017 -->
<svg xmlns="http://www.w3.org/2000/svg" xml:space="preserve" width="7.87402in" height="11.811in" version="1.1" style="shape-rendering:geometricPrecision; text-rendering:geometricPrecision; image-rendering:optimizeQuality; fill-rule:evenodd; clip-rule:evenodd"
viewBox="0 0 7874.02 11811.02"
 xmlns:xlink="http://www.w3.org/1999/xlink">
 <defs>
  <style type="text/css">
   <![CDATA[
    .fil1 {fill:white}
    .fil0 {fill:url(#id0)}
   ]]>
  </style>
  <linearGradient id="id0" gradientUnits="userSpaceOnUse" x1="3990.61" y1="2312.25" x2="4024.78" y2="12573.41">
   <stop offset="0" style="stop-opacity:1; stop-color:#CC9933"/>
   <stop offset="1" style="stop-opacity:1; stop-color:#946F26"/>
  </linearGradient>
 </defs>
 <g id="Layer_x0020_1">
  <metadata id="CorelCorpID_0Corel-Layer"/>
  <rect class="fil0" x="63.28" y="2312.99" width="7747.45" height="9498.04"/>
  <g id="_2261078896608">
   <g>
    <path class="fil1" d="M6114.38 9526.77l331.95 0c38.64,0 70.24,31.61 70.24,70.24l0 698.07 -472.44 0 0 -698.07c0,-38.64 31.61,-70.24 70.24,-70.24z"/>
    <path class="fil1" d="M1417.69 10584.68l331.95 0c38.64,0 70.25,-31.61 70.25,-70.24l0 -520.31 -472.45 0 0 520.31c0,38.64 31.61,70.24 70.25,70.24z"/>
    <path class="fil1" d="M4719.93 10787.21l331.95 0c38.64,0 70.24,-31.61 70.24,-70.24l0 -914.01 -472.44 0 0 914.01c0,38.64 31.61,70.24 70.24,70.24z"/>
    <path class="fil1" d="M4195.48 8569.25l331.95 0c38.64,0 70.24,31.61 70.24,70.24l0 1655.59 -472.44 0 0 -1655.59c0,-38.63 31.61,-70.24 70.24,-70.24z"/>
    <path class="fil1" d="M3146.58 9695.24l331.95 0c38.64,0 70.25,31.61 70.25,70.24l0 520.31 -472.45 0 0 -520.31c0,-38.64 31.61,-70.24 70.25,-70.24z"/>
    <path class="fil1" d="M2622.13 9695.24l331.95 0c38.64,0 70.25,31.61 70.25,70.24l0 520.31 -472.45 0 0 -520.31c0,-38.64 31.61,-70.24 70.25,-70.24z"/>
    <path class="fil1" d="M3671.04 9695.24l331.95 0c38.64,0 70.25,31.61 70.25,70.24l0 520.31 -472.45 0 0 -520.31c0,-38.64 31.61,-70.24 70.25,-70.24z"/>
   </g>
   <path class="fil1" d="M3937.01 7695.18c1972.39,0 3588.07,1526.8 3729.92,3462.97l-474.02 0c-140.72,-1674.95 -1544.57,-2990.53 -3255.9,-2990.53 -1711.33,0 -3115.18,1315.58 -3255.9,2990.53l-474.02 0c141.85,-1936.18 1757.53,-3462.97 3729.92,-3462.97z"/>
  </g>
 </g>
</svg>
