<svg xmlns="http://www.w3.org/2000/svg" xmlns:xlink="http://www.w3.org/1999/xlink" version="1.1" x="0px" y="0px" viewBox="0 0 100 125" style="enable-background:new 0 0 100 100;" xml:space="preserve"><g><path d="M83,5H17C10.4,5,5,10.4,5,17v66c0,6.6,5.4,12,12,12h66c6.6,0,12-5.4,12-12V17C95,10.4,89.6,5,83,5z M91,83c0,4.4-3.6,8-8,8   H17c-4.4,0-8-3.6-8-8V17c0-4.4,3.6-8,8-8h66c4.4,0,8,3.6,8,8V83z"/><polygon points="52,24 48,24 48,48 24,48 24,52 48,52 48,76 52,76 52,52 76,52 76,48 52,48  "/></g><text x="0" y="115" fill="#000000" font-size="5px" font-weight="bold" font-family="'Helvetica Neue', Helvetica, Arial-Unicode, Arial, Sans-serif">Created by IconMark</text><text x="0" y="120" fill="#000000" font-size="5px" font-weight="bold" font-family="'Helvetica Neue', Helvetica, Arial-Unicode, Arial, Sans-serif">from the Noun Project</text></svg>