<svg xmlns="http://www.w3.org/2000/svg" xmlns:xlink="http://www.w3.org/1999/xlink" version="1.1" x="0px" y="0px" viewBox="0 0 100 125" style="enable-background:new 0 0 100 100;" xml:space="preserve"><style type="text/css">
	.st0{display:none;}
	.st1{display:inline;fill:#686868;}
	.st2{display:inline;fill:#FFFFFF;}
	.st3{display:inline;fill:#8CC63F;}
	.st4{fill:#6B7E87;}
	.st5{fill:#FFFFFF;}
	.st6{fill:#B23267;}
	.st7{clip-path:url(#SVGID_2_);fill:#B23267;}
	.st8{fill:#CFAC76;}
	.st9{clip-path:url(#SVGID_4_);fill:#B23267;}
	.st10{clip-path:url(#SVGID_6_);fill:#CFAC76;}
	.st11{fill:none;stroke:#6B7E87;stroke-width:3;stroke-linecap:round;stroke-miterlimit:10;}
</style><g class="st0"><rect x="-875" y="-37" class="st1" width="1253" height="1253"/></g><g><path d="M51.6,12.8c0-0.9-0.7-1.6-1.6-1.6c-0.9,0-1.6,0.7-1.6,1.6v35.7H12.8c-0.9,0-1.6,0.7-1.6,1.6c0,0.9,0.7,1.6,1.6,1.6h35.7   v35.7c0,0.9,0.7,1.6,1.6,1.6c0.9,0,1.6-0.7,1.6-1.6V51.6h35.7c0.9,0,1.6-0.7,1.6-1.6c0-0.9-0.7-1.6-1.6-1.6H51.6V12.8z"/></g><text x="0" y="115" fill="#000000" font-size="5px" font-weight="bold" font-family="'Helvetica Neue', Helvetica, Arial-Unicode, Arial, Sans-serif">Created by Dániel Aczél</text><text x="0" y="120" fill="#000000" font-size="5px" font-weight="bold" font-family="'Helvetica Neue', Helvetica, Arial-Unicode, Arial, Sans-serif">from the Noun Project</text></svg>